<svg xmlns="http://www.w3.org/2000/svg" viewBox="0 0 24 24" fill="none" stroke="#52ff7a" stroke-width="1.8" stroke-linecap="round" stroke-linejoin="round">
  <path d="M12 2a10 10 0 0 0-3 19c.5.1.7-.2.7-.5v-2c-3 .7-3.6-1.2-3.6-1.2-.5-1.2-1.1-1.5-1.1-1.5-.9-.6.1-.6.1-.6 1 .1 1.6 1.1 1.6 1.1.9 1.6 2.4 1.1 3 .9.1-.7.4-1.1.7-1.4-2.4-.3-4.9-1.2-4.9-5.2 0-1.1.4-2.1 1.1-2.8-.1-.3-.5-1.4.1-2.8 0 0 .9-.3 2.9 1.1a10 10 0 0 1 5.2 0c2-1.4 2.9-1.1 2.9-1.1.6 1.4.2 2.5.1 2.8.7.7 1.1 1.7 1.1 2.8 0 4-2.5 4.9-4.9 5.2.4.3.8 1 .8 2v3c0 .3.2.6.8.5A10 10 0 0 0 12 2z"/>
</svg>
